<svg xmlns="http://www.w3.org/2000/svg" viewBox="0 0 355 30" width="355" height="30">
  <text x="0" y="20" font-family="'Courier New', Courier, monospace" font-size="14" font-weight="bold" fill="#ffffff">Apoya mis proyectos de código abierto:</text>
  <g transform="translate(325, 2) scale(1.0)">
    <!-- Ko-fi Cup Path in Brand Red -->
    <path fill="#FF5E5B" d="M23.881 8.948c-.773-4.085-4.859-4.593-4.859-4.593H.723c-.604 0-.723.676-.723.676V18.89c0 .772.821 1.062.821 1.062h15.262s1.449-.048 2.415-.966c.966-.917 1.932-3.139 1.932-3.139s3.139-.386 4.395-2.028c1.256-1.642.723-4.105.723-4.105.723-.531.723-1.014.723-1.014a2.215 2.215 0 0 0-.29-.753zm-3.09 5.311c-.579.821-2.028.966-2.028.966V7.403s1.545-.097 2.125.821c.579.917.483 1.545.483 1.545s.097 2.318-.58 3.49z"/>
    <!-- Heart Shape in White -->
    <path fill="#ffffff" d="M12.025 8.924c-.482-.676-1.448-.676-1.93 0l-.338.483-.338-.483c-.482-.676-1.448-.676-1.93 0-.483.676-.483 1.545 0 2.221l2.268 2.268 2.268-2.268c.483-.676.483-1.545 0-2.221z"/>
  </g>
</svg>
